<svg xmlns="http://www.w3.org/2000/svg" viewBox="0 0 55.12 54.49"><title>analytics</title><g id="Layer_4" data-name="Layer 4"><path d="M56.44,46.91h-50a2.56,2.56,0,0,1-2.56-2.56V6.05A2.56,2.56,0,0,1,6.44,3.49h50A2.56,2.56,0,0,1,59,6.05v38.3A2.56,2.56,0,0,1,56.44,46.91ZM6.44,5.08a1,1,0,0,0-1,1v38.3a1,1,0,0,0,1,1h50a1,1,0,0,0,1-1V6.05a1,1,0,0,0-1-1ZM54.67,43.37H8.21a.79.79,0,0,1-.79-.79V7.82A.8.8,0,0,1,8.21,7H54.67a.79.79,0,0,1,.79.79V42.58A.79.79,0,0,1,54.67,43.37ZM9,41.79H53.88V8.61H9Z" transform="translate(-3.88 -3.49)"/><path d="M35.63,53.46H27a.79.79,0,0,1-.79-.79V46.12a.79.79,0,0,1,.79-.79h8.6a.79.79,0,0,1,.79.79v6.55A.79.79,0,0,1,35.63,53.46Zm-7.8-1.58h7v-5h-7Z" transform="translate(-3.88 -3.49)"/><path d="M45.09,58H17.55a.79.79,0,0,1-.79-.79,5.31,5.31,0,0,1,5.31-5.31H40.56a5.32,5.32,0,0,1,5.32,5.31A.79.79,0,0,1,45.09,58ZM18.42,56.4H44.21a3.73,3.73,0,0,0-3.65-2.94H22.07A3.74,3.74,0,0,0,18.42,56.4Z" transform="translate(-3.88 -3.49)"/><path d="M31.39,37.6a.79.79,0,0,1-.77-.6L27.87,25.7l-2.49,6.2a.8.8,0,0,1-.75.49.79.79,0,0,1-.73-.51l-2.38-6.37L18.93,33.4a.77.77,0,0,1-.75.54h0a.78.78,0,0,1-.75-.54l-2.68-8.17L12.5,29.89a.79.79,0,0,1-1.4,0L7.61,23.5a.78.78,0,0,1,.32-1.07A.79.79,0,0,1,9,22.74l2.75,5.07,2.43-5a.79.79,0,0,1,1.46.09l2.54,7.75,2.54-7.75a.81.81,0,0,1,.74-.54.76.76,0,0,1,.75.51l2.46,6.58,2.65-6.59a.79.79,0,0,1,1.51.1l2.55,10.5,2.49-10.49a.79.79,0,0,1,1.52-.07l2.45,7.48,2.73-10.49a.78.78,0,0,1,.76-.59h0a.78.78,0,0,1,.76.6l2.35,9.65,2.39-11.84a.81.81,0,0,1,.69-.63.79.79,0,0,1,.81.46l3.46,7.66L54,22a.79.79,0,0,1,1.31.9l-3,4.31a.8.8,0,0,1-.73.34.79.79,0,0,1-.65-.46l-3-6.7L45.29,33.31a.78.78,0,0,1-.76.63.76.76,0,0,1-.78-.6l-2.44-10L38.7,33.35a.79.79,0,0,1-1.52,0L34.76,26l-2.6,11a.79.79,0,0,1-.77.61Z" transform="translate(-3.88 -3.49)"/><path d="M14.9,23.79a2,2,0,1,1,2-2A2,2,0,0,1,14.9,23.79Zm0-2.41a.41.41,0,0,0-.41.41.41.41,0,0,0,.41.42.42.42,0,0,0,.42-.42A.41.41,0,0,0,14.9,21.38Z" transform="translate(-3.88 -3.49)"/><path d="M24.54,34.81a2,2,0,1,1,2-2A2,2,0,0,1,24.54,34.81Zm0-2.42a.42.42,0,1,0,.42.42A.42.42,0,0,0,24.54,32.39Z" transform="translate(-3.88 -3.49)"/><path d="M34.58,23.82a2.12,2.12,0,1,1,2.11-2.12A2.12,2.12,0,0,1,34.58,23.82Zm0-2.65a.54.54,0,0,0,0,1.07.54.54,0,0,0,0-1.07Z" transform="translate(-3.88 -3.49)"/><path d="M44.57,36.83a2.11,2.11,0,1,1,2.11-2.11A2.11,2.11,0,0,1,44.57,36.83Zm0-2.64a.53.53,0,1,0,.53.53A.54.54,0,0,0,44.57,34.19Z" transform="translate(-3.88 -3.49)"/></g></svg>