<svg id="Layer_29" data-name="Layer 29" xmlns="http://www.w3.org/2000/svg" viewBox="0 0 57.3 56.72"><defs><style>.cls-1{fill:#333;}</style></defs><title>camera-icon</title><path class="cls-1" d="M13,18.74H3.39a.85.85,0,0,1-.84-.84V7.33a.84.84,0,0,1,.84-.84H8.45a.86.86,0,0,1,.77.5l4.59,10.57a.87.87,0,0,1-.07.8A.86.86,0,0,1,13,18.74ZM4.23,17.06h7.53L7.9,8.16H4.23Z" transform="translate(-2.55 -3.01)"/><path class="cls-1" d="M52.84,22.63H14.73a.83.83,0,0,1-.77-.51L6.17,4.18A.84.84,0,0,1,6.94,3h45.9A3.15,3.15,0,0,1,56,6.15V19.49A3.15,3.15,0,0,1,52.84,22.63ZM15.28,21H52.84a1.46,1.46,0,0,0,1.47-1.46V6.15a1.46,1.46,0,0,0-1.47-1.46H8.22Z" transform="translate(-2.55 -3.01)"/><path class="cls-1" d="M31.62,47.53a4.88,4.88,0,1,1,4.87-4.88A4.89,4.89,0,0,1,31.62,47.53Zm0-8.08a3.2,3.2,0,1,0,3.2,3.2A3.2,3.2,0,0,0,31.62,39.45Z" transform="translate(-2.55 -3.01)"/><path class="cls-1" d="M30.29,39.15a.85.85,0,0,1-.84-.84V21.79a.84.84,0,0,1,1.68,0V38.31A.85.85,0,0,1,30.29,39.15Z" transform="translate(-2.55 -3.01)"/><path class="cls-1" d="M52.67,53.63a.85.85,0,0,1-.31-.06L34.25,46.26a.84.84,0,1,1,.63-1.55L53,52a.84.84,0,0,1-.32,1.62Z" transform="translate(-2.55 -3.01)"/><path class="cls-1" d="M58.36,59.73H52.92a.84.84,0,0,1-.84-.84V43.54a.83.83,0,0,1,.84-.83h5.44a.84.84,0,0,1,.84.83V58.89A.85.85,0,0,1,58.36,59.73Zm-4.61-1.68h3.77V44.38H53.75Z" transform="translate(-2.55 -3.01)"/><path class="cls-1" d="M57.62,18.73H55.15a.84.84,0,0,1-.84-.84V7.75a.83.83,0,0,1,.84-.84h2.47a2.23,2.23,0,0,1,2.23,2.23V16.5A2.23,2.23,0,0,1,57.62,18.73ZM56,17.05h1.64a.55.55,0,0,0,.56-.55V9.14a.55.55,0,0,0-.56-.55H56Z" transform="translate(-2.55 -3.01)"/></svg>