<svg xmlns="http://www.w3.org/2000/svg" viewBox="0 0 192 192"><defs><style>.cls-1{fill:#009fe3;}.cls-2{fill:#4e849e;}</style></defs><title>dpml-clock</title><g id="Layer_3" data-name="Layer 3"><path class="cls-1" d="M127.14,69.33a4,4,0,0,0-4,4v56h-56a4,4,0,0,0-4,4,64,64,0,1,0,64-64Z" transform="translate(-31.14 -37.33)"/><path class="cls-2" d="M127.14,37.33a96,96,0,1,0,96,96A96,96,0,0,0,127.14,37.33Zm0,176a80,80,0,1,1,80-80A80,80,0,0,1,127.14,213.33Z" transform="translate(-31.14 -37.33)"/></g></svg>