<svg id="Layer_30" data-name="Layer 30" xmlns="http://www.w3.org/2000/svg" viewBox="0 0 58.69 58.33"><defs><style>.cls-1{fill:#333;}</style></defs><title>hardware-icon</title><path class="cls-1" d="M52.14,52.64H10a.85.85,0,0,1-.86-.86V9.59A.85.85,0,0,1,10,8.73H52.14a.85.85,0,0,1,.86.86V51.78A.85.85,0,0,1,52.14,52.64ZM10.81,50.92H51.28V10.45H10.81Z" transform="translate(-1.7 -1.52)"/><path class="cls-1" d="M46.33,46.88l-.17,0-.16,0-.15-.07-.13-.11a.89.89,0,0,1-.26-.61.87.87,0,0,1,.26-.61l.13-.11.15-.08.16,0a.91.91,0,0,1,.33,0l.16,0,.15.08.13.11a.87.87,0,0,1,.26.61.89.89,0,0,1-.26.61l-.13.11-.15.07-.16,0Z" transform="translate(-1.7 -1.52)"/><path class="cls-1" d="M37.8,46a.86.86,0,0,1,.86-.86h0a.87.87,0,0,1,.86.86h0a.86.86,0,0,1-.86.86h0A.85.85,0,0,1,37.8,46Zm-7.67,0a.86.86,0,0,1,.86-.86h0a.87.87,0,0,1,.86.86h0a.86.86,0,0,1-.86.86h0A.85.85,0,0,1,30.13,46Zm-7.66,0a.86.86,0,0,1,.85-.86h0a.86.86,0,0,1,.86.86h0a.85.85,0,0,1-.86.86h0A.85.85,0,0,1,22.47,46Z" transform="translate(-1.7 -1.52)"/><path class="cls-1" d="M15.65,46.88a.86.86,0,0,1-.6-.25A.88.88,0,0,1,14.8,46a.86.86,0,0,1,.25-.61l.13-.11.15-.08.16,0a.84.84,0,0,1,.77.23.86.86,0,0,1,.25.61.88.88,0,0,1-.25.61A.86.86,0,0,1,15.65,46.88Z" transform="translate(-1.7 -1.52)"/><path class="cls-1" d="M14.8,38.35a.86.86,0,0,1,.85-.86h0a.86.86,0,0,1,.86.86h0a.85.85,0,0,1-.86.86h0A.85.85,0,0,1,14.8,38.35Zm0-7.66a.85.85,0,0,1,.85-.86h0a.85.85,0,0,1,.86.86h0a.86.86,0,0,1-.86.86h0A.86.86,0,0,1,14.8,30.69Zm0-7.67a.85.85,0,0,1,.85-.86h0a.85.85,0,0,1,.86.86h0a.86.86,0,0,1-.86.86h0A.86.86,0,0,1,14.8,23Z" transform="translate(-1.7 -1.52)"/><path class="cls-1" d="M15.65,16.21a.47.47,0,0,1-.16,0,.49.49,0,0,1-.16-.05.55.55,0,0,1-.15-.08l-.13-.1-.11-.13-.08-.15a1,1,0,0,1,0-.16,1.45,1.45,0,0,1,0-.34,1,1,0,0,1,0-.16l.08-.15a.63.63,0,0,1,.11-.12.88.88,0,0,1,1.21,0,.84.84,0,0,1,.25.6,1,1,0,0,1,0,.17c0,.05,0,.11-.05.16a1.09,1.09,0,0,1-.08.15l-.11.13A.86.86,0,0,1,15.65,16.21Z" transform="translate(-1.7 -1.52)"/><path class="cls-1" d="M37.8,15.35a.86.86,0,0,1,.86-.86h0a.87.87,0,0,1,.86.86h0a.87.87,0,0,1-.86.86h0A.86.86,0,0,1,37.8,15.35Zm-7.67,0a.87.87,0,0,1,.86-.86h0a.87.87,0,0,1,.86.86h0a.87.87,0,0,1-.86.86h0A.87.87,0,0,1,30.13,15.35Zm-7.66,0a.86.86,0,0,1,.85-.86h0a.86.86,0,0,1,.86.86h0a.86.86,0,0,1-.86.86h0A.86.86,0,0,1,22.47,15.35Z" transform="translate(-1.7 -1.52)"/><path class="cls-1" d="M46.33,16.21a.47.47,0,0,1-.17,0,.43.43,0,0,1-.16-.05.36.36,0,0,1-.15-.08l-.13-.1a.85.85,0,0,1,0-1.22l.13-.1a.53.53,0,0,1,.15-.08.43.43,0,0,1,.16-.05A.85.85,0,0,1,46.93,16l-.13.1a.36.36,0,0,1-.15.08.43.43,0,0,1-.16.05A.44.44,0,0,1,46.33,16.21Z" transform="translate(-1.7 -1.52)"/><path class="cls-1" d="M45.47,38.35a.86.86,0,0,1,.86-.86h0a.87.87,0,0,1,.86.86h0a.86.86,0,0,1-.86.86h0A.85.85,0,0,1,45.47,38.35Zm0-7.66a.85.85,0,0,1,.86-.86h0a.86.86,0,0,1,.86.86h0a.87.87,0,0,1-.86.86h0A.86.86,0,0,1,45.47,30.69Zm0-7.67a.85.85,0,0,1,.86-.86h0a.86.86,0,0,1,.86.86h0a.87.87,0,0,1-.86.86h0A.86.86,0,0,1,45.47,23Z" transform="translate(-1.7 -1.52)"/><path class="cls-1" d="M14,10.45a.86.86,0,0,1-.86-.86V2.38a.86.86,0,0,1,1.72,0V9.59A.87.87,0,0,1,14,10.45Z" transform="translate(-1.7 -1.52)"/><path class="cls-1" d="M19.77,10.45a.86.86,0,0,1-.86-.86V2.38a.86.86,0,1,1,1.71,0V9.59A.86.86,0,0,1,19.77,10.45Z" transform="translate(-1.7 -1.52)"/><path class="cls-1" d="M25.58,10.45a.86.86,0,0,1-.85-.86V2.38a.86.86,0,1,1,1.71,0V9.59A.86.86,0,0,1,25.58,10.45Z" transform="translate(-1.7 -1.52)"/><path class="cls-1" d="M31.4,10.45a.86.86,0,0,1-.85-.86V2.38a.86.86,0,1,1,1.71,0V9.59A.86.86,0,0,1,31.4,10.45Z" transform="translate(-1.7 -1.52)"/><path class="cls-1" d="M37.22,10.45a.87.87,0,0,1-.86-.86V2.38a.86.86,0,0,1,1.72,0V9.59A.86.86,0,0,1,37.22,10.45Z" transform="translate(-1.7 -1.52)"/><path class="cls-1" d="M43,10.45a.87.87,0,0,1-.86-.86V2.38a.86.86,0,0,1,1.72,0V9.59A.86.86,0,0,1,43,10.45Z" transform="translate(-1.7 -1.52)"/><path class="cls-1" d="M48.86,10.45A.87.87,0,0,1,48,9.59V2.38a.86.86,0,0,1,1.72,0V9.59A.86.86,0,0,1,48.86,10.45Z" transform="translate(-1.7 -1.52)"/><path class="cls-1" d="M13.59,59.85a.85.85,0,0,1-.86-.86V51.78a.86.86,0,0,1,1.72,0V59A.86.86,0,0,1,13.59,59.85Z" transform="translate(-1.7 -1.52)"/><path class="cls-1" d="M19.41,59.85a.85.85,0,0,1-.86-.86V51.78a.86.86,0,1,1,1.71,0V59A.85.85,0,0,1,19.41,59.85Z" transform="translate(-1.7 -1.52)"/><path class="cls-1" d="M25.22,59.85a.85.85,0,0,1-.85-.86V51.78a.86.86,0,1,1,1.71,0V59A.85.85,0,0,1,25.22,59.85Z" transform="translate(-1.7 -1.52)"/><path class="cls-1" d="M31,59.85a.85.85,0,0,1-.85-.86V51.78a.86.86,0,1,1,1.71,0V59A.85.85,0,0,1,31,59.85Z" transform="translate(-1.7 -1.52)"/><path class="cls-1" d="M36.86,59.85A.86.86,0,0,1,36,59V51.78a.86.86,0,0,1,1.72,0V59A.85.85,0,0,1,36.86,59.85Z" transform="translate(-1.7 -1.52)"/><path class="cls-1" d="M42.68,59.85a.86.86,0,0,1-.86-.86V51.78a.86.86,0,0,1,1.72,0V59A.85.85,0,0,1,42.68,59.85Z" transform="translate(-1.7 -1.52)"/><path class="cls-1" d="M48.5,59.85a.86.86,0,0,1-.86-.86V51.78a.86.86,0,0,1,1.72,0V59A.85.85,0,0,1,48.5,59.85Z" transform="translate(-1.7 -1.52)"/><path class="cls-1" d="M9.77,48.82H2.56a.86.86,0,0,1,0-1.72H9.77a.86.86,0,1,1,0,1.72Z" transform="translate(-1.7 -1.52)"/><path class="cls-1" d="M9.77,43H2.56a.86.86,0,0,1,0-1.72H9.77a.86.86,0,1,1,0,1.72Z" transform="translate(-1.7 -1.52)"/><path class="cls-1" d="M9.77,37.18H2.56a.86.86,0,1,1,0-1.71H9.77a.86.86,0,1,1,0,1.71Z" transform="translate(-1.7 -1.52)"/><path class="cls-1" d="M9.77,31.36H2.56a.86.86,0,1,1,0-1.71H9.77a.86.86,0,1,1,0,1.71Z" transform="translate(-1.7 -1.52)"/><path class="cls-1" d="M9.77,25.54H2.56a.86.86,0,1,1,0-1.71H9.77a.86.86,0,1,1,0,1.71Z" transform="translate(-1.7 -1.52)"/><path class="cls-1" d="M9.77,19.73H2.56a.86.86,0,0,1,0-1.72H9.77a.86.86,0,0,1,0,1.72Z" transform="translate(-1.7 -1.52)"/><path class="cls-1" d="M9.77,13.91H2.56a.86.86,0,0,1,0-1.72H9.77a.86.86,0,1,1,0,1.72Z" transform="translate(-1.7 -1.52)"/><path class="cls-1" d="M59.53,49.18H52.32a.86.86,0,0,1,0-1.72h7.21a.86.86,0,0,1,0,1.72Z" transform="translate(-1.7 -1.52)"/><path class="cls-1" d="M59.53,43.36H52.32a.86.86,0,1,1,0-1.72h7.21a.86.86,0,0,1,0,1.72Z" transform="translate(-1.7 -1.52)"/><path class="cls-1" d="M59.53,37.54H52.32a.86.86,0,1,1,0-1.71h7.21a.86.86,0,1,1,0,1.71Z" transform="translate(-1.7 -1.52)"/><path class="cls-1" d="M59.53,31.72H52.32a.86.86,0,1,1,0-1.71h7.21a.86.86,0,1,1,0,1.71Z" transform="translate(-1.7 -1.52)"/><path class="cls-1" d="M59.53,25.9H52.32a.86.86,0,1,1,0-1.71h7.21a.86.86,0,1,1,0,1.71Z" transform="translate(-1.7 -1.52)"/><path class="cls-1" d="M59.53,20.09H52.32a.86.86,0,0,1,0-1.72h7.21a.86.86,0,0,1,0,1.72Z" transform="translate(-1.7 -1.52)"/><path class="cls-1" d="M59.53,14.27H52.32a.86.86,0,0,1,0-1.72h7.21a.86.86,0,0,1,0,1.72Z" transform="translate(-1.7 -1.52)"/></svg>