<svg xmlns="http://www.w3.org/2000/svg" version="1.1" xmlns:xlink="http://www.w3.org/1999/xlink" xmlns:svgjs="http://svgjs.com/svgjs" viewBox="0 0 60 60" width="60" height="60"><title>Exported from Streamline App (https://app.streamlineicons.com)</title><g transform="matrix(2.5,0,0,2.5,0,0)"><path d="M 6.5,8.501c0.828,0,1.5,0.672,1.5,1.5s-0.672,1.5-1.5,1.5S5,10.829,5,10.001S5.672,8.501,6.5,8.501z " stroke="#4dbce8" fill="none" stroke-width="1" stroke-linecap="round" stroke-linejoin="round"></path><path d="M 12,5.501 c0.828,0,1.5,0.672,1.5,1.5s-0.672,1.5-1.5,1.5s-1.5-0.672-1.5-1.5S11.172,5.501,12,5.501z " stroke="#4dbce8" fill="none" stroke-width="1" stroke-linecap="round" stroke-linejoin="round"></path><path d="M 6.5,11.501v2 " stroke="#4dbce8" fill="none" stroke-width="1" stroke-linecap="round" stroke-linejoin="round"></path><path d="M 12,3.501v2 " stroke="#4dbce8" fill="none" stroke-width="1" stroke-linecap="round" stroke-linejoin="round"></path><path d="M 6.5,8.501 v-5 " stroke="#4dbce8" fill="none" stroke-width="1" stroke-linecap="round" stroke-linejoin="round"></path><path d="M 17.5,8.501c0.828,0,1.5,0.672,1.5,1.5s-0.672,1.5-1.5,1.5s-1.5-0.672-1.5-1.5S16.672,8.501,17.5,8.501z " stroke="#4dbce8" fill="none" stroke-width="1" stroke-linecap="round" stroke-linejoin="round"></path><path d="M 17.5,11.501v2 " stroke="#4dbce8" fill="none" stroke-width="1" stroke-linecap="round" stroke-linejoin="round"></path><path d="M 17.5,8.501v-5 " stroke="#4dbce8" fill="none" stroke-width="1" stroke-linecap="round" stroke-linejoin="round"></path><path d="M 12,13.501v-5 " stroke="#4dbce8" fill="none" stroke-width="1" stroke-linecap="round" stroke-linejoin="round"></path><path d="M 9.138,23.5c0.829-1.175,1.302-2.564,1.362-4 " stroke="#4dbce8" fill="none" stroke-width="1" stroke-linecap="round" stroke-linejoin="round"></path><path d="M 14.862,23.5c-0.829-1.175-1.302-2.564-1.362-4 " stroke="#4dbce8" fill="none" stroke-width="1" stroke-linecap="round" stroke-linejoin="round"></path><path d="M 7.5,23.501h9 " stroke="#4dbce8" fill="none" stroke-width="1" stroke-linecap="round" stroke-linejoin="round"></path><path d="M 0.5,16.501h23 " stroke="#4dbce8" fill="none" stroke-width="1" stroke-linecap="round" stroke-linejoin="round"></path><path d="M 1.5,0.501h21c0.552,0,1,0.448,1,1v17c0,0.552-0.448,1-1,1h-21c-0.552,0-1-0.448-1-1v-17 C0.5,0.949,0.948,0.501,1.5,0.501z" stroke="#4dbce8" fill="none" stroke-width="1" stroke-linecap="round" stroke-linejoin="round"></path></g></svg>