<svg xmlns="http://www.w3.org/2000/svg" version="1.1" xmlns:xlink="http://www.w3.org/1999/xlink" xmlns:svgjs="http://svgjs.com/svgjs" viewBox="0 0 60 60" width="60" height="60"><title>Exported from Streamline App (https://app.streamlineicons.com)</title><g transform="matrix(2.5,0,0,2.5,0,0)"><path d="M 6,1h12c0.828,0,1.5,0.672,1.5,1.5v6c0,0.828-0.672,1.5-1.5,1.5H6c-0.828,0-1.5-0.672-1.5-1.5v-6 C4.5,1.672,5.172,1,6,1z " stroke="#4dbce8" fill="none" stroke-width="1" stroke-linecap="round" stroke-linejoin="round"></path><path d="M 8,4c0.828,0,1.5,0.672,1.5,1.5S8.828,7,8,7S6.5,6.328,6.5,5.5S7.172,4,8,4z " stroke="#4dbce8" fill="none" stroke-width="1" stroke-linecap="round" stroke-linejoin="round"></path><path d="M 16,4 c0.828,0,1.5,0.672,1.5,1.5S16.828,7,16,7c-0.828,0-1.5-0.672-1.5-1.5S15.172,4,16,4z " stroke="#4dbce8" fill="none" stroke-width="1" stroke-linecap="round" stroke-linejoin="round"></path><path d="M 10.5,12h3 " stroke="#4dbce8" fill="none" stroke-width="1" stroke-linecap="round" stroke-linejoin="round"></path><path d="M 10.5,14h3 " stroke="#4dbce8" fill="none" stroke-width="1" stroke-linecap="round" stroke-linejoin="round"></path><path d="M 14.97,16H9.03 c-2.023,0.001-3.663,1.641-3.662,3.664c0,0.257,0.027,0.514,0.081,0.765l0.466,2.176C5.964,22.834,6.166,22.998,6.4,23h11.2 c0.236,0,0.439-0.165,0.489-0.395l0.466-2.176c0.423-1.978-0.838-3.925-2.816-4.348C15.486,16.027,15.228,16,14.97,16z " stroke="#4dbce8" fill="none" stroke-width="1" stroke-linecap="round" stroke-linejoin="round"></path><path d="M 18.614,19.279l2.074-1.605C21.796,16.804,22.306,15.375,22,14l-0.053-0.186 " stroke="#4dbce8" fill="none" stroke-width="1" stroke-linecap="round" stroke-linejoin="round"></path><path d="M 23,10c0.828,1.105,0.605,2.672-0.5,3.5 S19.828,14.105,19,13 " stroke="#4dbce8" fill="none" stroke-width="1" stroke-linecap="round" stroke-linejoin="round"></path><path d="M 5.387,19.279l-2.075-1.605C2.204,16.804,1.694,15.375,2,14l0.016-0.2 " stroke="#4dbce8" fill="none" stroke-width="1" stroke-linecap="round" stroke-linejoin="round"></path><path d="M 1,10 c-0.828,1.105-0.605,2.672,0.5,3.5S4.172,14.105,5,13 " stroke="#4dbce8" fill="none" stroke-width="1" stroke-linecap="round" stroke-linejoin="round"></path><path d="M 15.5,23v-3.5c0-0.276-0.224-0.5-0.5-0.5H9c-0.276,0-0.5,0.224-0.5,0.5V23" stroke="#4dbce8" fill="none" stroke-width="1" stroke-linecap="round" stroke-linejoin="round"></path></g></svg>