<svg xmlns="http://www.w3.org/2000/svg" version="1.1" xmlns:xlink="http://www.w3.org/1999/xlink" xmlns:svgjs="http://svgjs.com/svgjs" viewBox="0 0 60 60" width="60" height="60"><title>Exported from Streamline App (https://app.streamlineicons.com)</title><g transform="matrix(2.5,0,0,2.5,0,0)"><path d="M 2.504,0.5h19c1.105,0,2,0.895,2,2v18c0,1.105-0.895,2-2,2h-19c-1.105,0-2-0.895-2-2v-18 C0.504,1.395,1.399,0.5,2.504,0.5z " stroke="#4dbce8" fill="none" stroke-width="1" stroke-linecap="round" stroke-linejoin="round"></path><path d="M 2.504,22.5v1 " stroke="#4dbce8" fill="none" stroke-width="1" stroke-linecap="round" stroke-linejoin="round"></path><path d="M 21.504,22.5v1 " stroke="#4dbce8" fill="none" stroke-width="1" stroke-linecap="round" stroke-linejoin="round"></path><path d="M 3.5,16.5v1c0,1.105,0.895,2,2,2h13c1.105,0,2-0.895,2-2v-12 c0-1.105-0.895-2-2-2h-13c-1.105,0-2,0.895-2,2v1 " stroke="#4dbce8" fill="none" stroke-width="1" stroke-linecap="round" stroke-linejoin="round"></path><path d="M 3.504,9.5v4 " stroke="#4dbce8" fill="none" stroke-width="1" stroke-linecap="round" stroke-linejoin="round"></path><path d="M 2.504,6.5h2v3h-2V6.5z " stroke="#4dbce8" fill="none" stroke-width="1" stroke-linecap="round" stroke-linejoin="round"></path><path d="M 2.504,13.5h2v3h-2V13.5z " stroke="#4dbce8" fill="none" stroke-width="1" stroke-linecap="round" stroke-linejoin="round"></path><path d="M 12.504,7 c2.485,0,4.5,2.015,4.5,4.5s-2.015,4.5-4.5,4.5s-4.5-2.015-4.5-4.5S10.019,7,12.504,7z " stroke="#4dbce8" fill="none" stroke-width="1" stroke-linecap="round" stroke-linejoin="round"></path><path d="M 12.504,9c1.381,0,2.5,1.119,2.5,2.5 s-1.119,2.5-2.5,2.5s-2.5-1.119-2.5-2.5S11.123,9,12.504,9z " stroke="#4dbce8" fill="none" stroke-width="1" stroke-linecap="round" stroke-linejoin="round"></path><path d="M 12.504,7v2 " stroke="#4dbce8" fill="none" stroke-width="1" stroke-linecap="round" stroke-linejoin="round"></path><path d="M 9.322,8.318l1.414,1.415 " stroke="#4dbce8" fill="none" stroke-width="1" stroke-linecap="round" stroke-linejoin="round"></path><path d="M 8.004,11.5h2 " stroke="#4dbce8" fill="none" stroke-width="1" stroke-linecap="round" stroke-linejoin="round"></path><path d="M 9.322,14.682 l1.414-1.414 " stroke="#4dbce8" fill="none" stroke-width="1" stroke-linecap="round" stroke-linejoin="round"></path><path d="M 12.504,16v-2 " stroke="#4dbce8" fill="none" stroke-width="1" stroke-linecap="round" stroke-linejoin="round"></path><path d="M 15.686,14.683l-1.414-1.415 " stroke="#4dbce8" fill="none" stroke-width="1" stroke-linecap="round" stroke-linejoin="round"></path><path d="M 17.004,11.5h-2 " stroke="#4dbce8" fill="none" stroke-width="1" stroke-linecap="round" stroke-linejoin="round"></path><path d="M 15.686,8.318l-1.414,1.415" stroke="#4dbce8" fill="none" stroke-width="1" stroke-linecap="round" stroke-linejoin="round"></path></g></svg>