<svg id="Layer_28" data-name="Layer 28" xmlns="http://www.w3.org/2000/svg" viewBox="0 0 58.14 58.51"><defs><style>.cls-1{fill:#333;}</style></defs><title>server-icon</title><path class="cls-1" d="M10.25,12.56a2.68,2.68,0,1,1,2.68-2.68A2.68,2.68,0,0,1,10.25,12.56Zm0-3.66a1,1,0,1,0,1,1A1,1,0,0,0,10.25,8.9Z" transform="translate(-1.78 -1.93)"/><path class="cls-1" d="M34.38,12.84a.85.85,0,0,1-.85-.85V6.83a.85.85,0,0,1,1.7,0V12A.85.85,0,0,1,34.38,12.84Z" transform="translate(-1.78 -1.93)"/><path class="cls-1" d="M40.36,12.84a.85.85,0,0,1-.85-.85V6.83a.85.85,0,1,1,1.7,0V12A.85.85,0,0,1,40.36,12.84Z" transform="translate(-1.78 -1.93)"/><path class="cls-1" d="M46.35,12.84A.85.85,0,0,1,45.5,12V6.83a.85.85,0,1,1,1.69,0V12A.85.85,0,0,1,46.35,12.84Z" transform="translate(-1.78 -1.93)"/><path class="cls-1" d="M52.33,12.84a.85.85,0,0,1-.85-.85V6.83a.85.85,0,1,1,1.7,0V12A.85.85,0,0,1,52.33,12.84Z" transform="translate(-1.78 -1.93)"/><path class="cls-1" d="M10.25,31.31a2.68,2.68,0,1,1,2.68-2.68A2.68,2.68,0,0,1,10.25,31.31Zm0-3.67a1,1,0,1,0,1,1A1,1,0,0,0,10.25,27.64Z" transform="translate(-1.78 -1.93)"/><path class="cls-1" d="M34.38,31.59a.85.85,0,0,1-.85-.85V25.57a.85.85,0,1,1,1.7,0v5.17A.85.85,0,0,1,34.38,31.59Z" transform="translate(-1.78 -1.93)"/><path class="cls-1" d="M40.36,31.59a.85.85,0,0,1-.85-.85V25.57a.85.85,0,1,1,1.7,0v5.17A.85.85,0,0,1,40.36,31.59Z" transform="translate(-1.78 -1.93)"/><path class="cls-1" d="M46.35,31.59a.85.85,0,0,1-.85-.85V25.57a.85.85,0,1,1,1.69,0v5.17A.85.85,0,0,1,46.35,31.59Z" transform="translate(-1.78 -1.93)"/><path class="cls-1" d="M52.33,31.59a.85.85,0,0,1-.85-.85V25.57a.85.85,0,1,1,1.7,0v5.17A.85.85,0,0,1,52.33,31.59Z" transform="translate(-1.78 -1.93)"/><path class="cls-1" d="M10.25,50.05a2.68,2.68,0,1,1,2.68-2.68A2.68,2.68,0,0,1,10.25,50.05Zm0-3.66a1,1,0,1,0,1,1A1,1,0,0,0,10.25,46.39Z" transform="translate(-1.78 -1.93)"/><path class="cls-1" d="M34.38,50.33a.85.85,0,0,1-.85-.85V44.32a.85.85,0,0,1,1.7,0v5.16A.85.85,0,0,1,34.38,50.33Z" transform="translate(-1.78 -1.93)"/><path class="cls-1" d="M40.36,50.33a.85.85,0,0,1-.85-.85V44.32a.85.85,0,1,1,1.7,0v5.16A.85.85,0,0,1,40.36,50.33Z" transform="translate(-1.78 -1.93)"/><path class="cls-1" d="M46.35,50.33a.85.85,0,0,1-.85-.85V44.32a.85.85,0,1,1,1.69,0v5.16A.85.85,0,0,1,46.35,50.33Z" transform="translate(-1.78 -1.93)"/><path class="cls-1" d="M52.33,50.33a.85.85,0,0,1-.85-.85V44.32a.85.85,0,1,1,1.7,0v5.16A.85.85,0,0,1,52.33,50.33Z" transform="translate(-1.78 -1.93)"/><path class="cls-1" d="M59.08,18.66H2.63a.85.85,0,0,1-.85-.85v-15a.85.85,0,0,1,.85-.85H59.08a.86.86,0,0,1,.85.85v15A.86.86,0,0,1,59.08,18.66ZM3.48,17H58.23V3.63H3.48Z" transform="translate(-1.78 -1.93)"/><path class="cls-1" d="M59.08,56.15H2.63a.85.85,0,0,1-.85-.85v-15a.85.85,0,0,1,.85-.85H59.08a.86.86,0,0,1,.85.85v15A.86.86,0,0,1,59.08,56.15Zm-55.6-1.7H58.23V41.12H3.48Z" transform="translate(-1.78 -1.93)"/><path class="cls-1" d="M52.33,41.12H9.38a.85.85,0,0,1-.85-.85V36.56a.85.85,0,0,1,.85-.85H52.33a.85.85,0,0,1,.85.85v3.71A.85.85,0,0,1,52.33,41.12Zm-42.1-1.7H51.48v-2H10.23Z" transform="translate(-1.78 -1.93)"/><path class="cls-1" d="M52.33,22.38H9.38a.85.85,0,0,1-.85-.85V17.81A.85.85,0,0,1,9.38,17H52.33a.85.85,0,0,1,.85.85v3.72A.85.85,0,0,1,52.33,22.38Zm-42.1-1.7H51.48v-2H10.23Z" transform="translate(-1.78 -1.93)"/><path class="cls-1" d="M59.08,37.4H2.63a.85.85,0,0,1-.85-.84v-15a.85.85,0,0,1,.85-.85H59.08a.86.86,0,0,1,.85.85v15A.85.85,0,0,1,59.08,37.4ZM3.48,35.71H58.23V22.38H3.48Z" transform="translate(-1.78 -1.93)"/><path class="cls-1" d="M14.5,60.44H8.57a.85.85,0,0,1-.84-.85V55.3a.85.85,0,0,1,.84-.85H14.5a.85.85,0,0,1,.85.85v4.29A.85.85,0,0,1,14.5,60.44ZM9.42,58.75h4.23v-2.6H9.42Z" transform="translate(-1.78 -1.93)"/><path class="cls-1" d="M53.13,60.44H47.2a.85.85,0,0,1-.85-.85V55.3a.85.85,0,0,1,.85-.85h5.93a.85.85,0,0,1,.85.85v4.29A.85.85,0,0,1,53.13,60.44Zm-5.08-1.69h4.23v-2.6H48.05Z" transform="translate(-1.78 -1.93)"/></svg>