<svg xmlns="http://www.w3.org/2000/svg" version="1.1" xmlns:xlink="http://www.w3.org/1999/xlink" xmlns:svgjs="http://svgjs.com/svgjs" viewBox="0 0 60 60" width="60" height="60"><title>Exported from Streamline App (https://app.streamlineicons.com)</title><g transform="matrix(2.5,0,0,2.5,0,0)"><path d="M 23.047,5.219L19.09,1.113C18.713,0.722,18.193,0.5,17.65,0.5H6.35c-0.543,0-1.063,0.221-1.44,0.612 L0.953,5.219 " stroke="#4dbce8" fill="none" stroke-width="1" stroke-linecap="round" stroke-linejoin="round"></path><path d="M 23.5,8.5c0,1.105-0.895,2-2,2h-19c-1.105,0-2-0.895-2-2v-2c0-1.105,0.895-2,2-2h19c1.105,0,2,0.895,2,2V8.5z " stroke="#4dbce8" fill="none" stroke-width="1" stroke-linecap="round" stroke-linejoin="round"></path><path d="M 23.5,14.5c0,1.105-0.895,2-2,2h-19c-1.105,0-2-0.895-2-2v-2c0-1.105,0.895-2,2-2h19c1.105,0,2,0.895,2,2V14.5z " stroke="#4dbce8" fill="none" stroke-width="1" stroke-linecap="round" stroke-linejoin="round"></path><path d="M 4.75,7.25 C4.612,7.25,4.5,7.362,4.5,7.5s0.112,0.25,0.25,0.25S5,7.638,5,7.5S4.888,7.25,4.75,7.25L4.75,7.25 " stroke="#4dbce8" fill="none" stroke-width="1" stroke-linecap="round" stroke-linejoin="round"></path><path d="M 8.25,7.25 C8.112,7.25,8,7.362,8,7.5s0.112,0.25,0.25,0.25S8.5,7.638,8.5,7.5S8.388,7.25,8.25,7.25L8.25,7.25 " stroke="#4dbce8" fill="none" stroke-width="1" stroke-linecap="round" stroke-linejoin="round"></path><path d="M 4.75,13.25 c-0.138,0-0.25,0.112-0.25,0.25s0.112,0.25,0.25,0.25S5,13.638,5,13.5S4.888,13.25,4.75,13.25L4.75,13.25 " stroke="#4dbce8" fill="none" stroke-width="1" stroke-linecap="round" stroke-linejoin="round"></path><path d="M 8.25,13.25 C8.112,13.25,8,13.362,8,13.5s0.112,0.25,0.25,0.25S8.5,13.638,8.5,13.5S8.388,13.25,8.25,13.25L8.25,13.25 " stroke="#4dbce8" fill="none" stroke-width="1" stroke-linecap="round" stroke-linejoin="round"></path><path d="M 12,16.5v7 " stroke="#4dbce8" fill="none" stroke-width="1" stroke-linecap="round" stroke-linejoin="round"></path><path d="M 6.5,23.5 h11 " stroke="#4dbce8" fill="none" stroke-width="1" stroke-linecap="round" stroke-linejoin="round"></path><path d="M 0.5,23.5h1 " stroke="#4dbce8" fill="none" stroke-width="1" stroke-linecap="round" stroke-linejoin="round"></path><path d="M 3.5,23.5h1 " stroke="#4dbce8" fill="none" stroke-width="1" stroke-linecap="round" stroke-linejoin="round"></path><path d="M 19.5,23.5h1 " stroke="#4dbce8" fill="none" stroke-width="1" stroke-linecap="round" stroke-linejoin="round"></path><path d="M 22.5,23.5h1" stroke="#4dbce8" fill="none" stroke-width="1" stroke-linecap="round" stroke-linejoin="round"></path></g></svg>